<?xml version="1.0" encoding="UTF-8" standalone="no"?>
<!-- Created with Inkscape (http://www.inkscape.org/) -->

<svg
   width="39.164772mm"
   height="39.164791mm"
   viewBox="0 0 39.164772 39.164791"
   version="1.1"
   id="svg1"
   xml:space="preserve"
   xmlns:xlink="http://www.w3.org/1999/xlink"
   xmlns="http://www.w3.org/2000/svg"
   xmlns:svg="http://www.w3.org/2000/svg"><defs
     id="defs1"><linearGradient
       id="linearGradient2"><stop
         style="stop-color:#7a97fb;stop-opacity:1;"
         offset="0"
         id="stop2" /><stop
         style="stop-color:#d18dcb;stop-opacity:1;"
         offset="0.5"
         id="stop5" /><stop
         style="stop-color:#f28383;stop-opacity:1;"
         offset="1"
         id="stop3" /></linearGradient><linearGradient
       xlink:href="#linearGradient2"
       id="linearGradient8"
       gradientUnits="userSpaceOnUse"
       x1="117.22699"
       y1="0.50693572"
       x2="117.22699"
       y2="210"
       gradientTransform="matrix(0.18649892,0,0,0.18649892,0,456.85234)" /></defs><g
     id="layer1"
     transform="translate(0,-456.85235)"><g
       id="g9"><rect
         style="fill:url(#linearGradient8);fill-opacity:1;stroke-width:0.0546843"
         id="rect5"
         width="39.164772"
         height="39.164772"
         x="0"
         y="456.85236"
         ry="5.4995804" /><g
         style="opacity:0.206186;fill:#333333;stroke:#1a1a1a;stroke-width:1.5"
         id="g6"
         transform="matrix(1.323556,-0.38881556,0.38881556,1.323556,-0.06885327,465.03383)"><path
           id="path6"
           style="baseline-shift:baseline;display:inline;overflow:visible;opacity:1;vector-effect:none;fill:#333333;stroke:none;stroke-linecap:round;stroke-linejoin:round;enable-background:accumulate;stop-color:#000000;stop-opacity:1"
           d="m 15.84375,3.3359375 c -1.251807,0.067562 -2.480743,0.8609908 -2.935547,2.0429687 -0.557564,1.4500686 0.175143,3.1974216 1.517578,3.9492188 -0.506281,0.4338818 -0.92492,0.922195 -1.367187,1.414063 L 11.283203,8.9667969 C 10.086823,7.7702984 7.9075591,7.7701667 6.7128906,8.96875 l -6.74609372,6.748047 c -1.19570108,1.195343 -1.19570108,3.371063 0,4.566406 1.19534322,1.195701 3.37106302,1.195701 4.56640622,0 l 0.00391,-0.002 L 9,15.816406 l 2.023438,2.021485 c 1.436004,1.435018 4.244158,0.988466 5.162109,-0.822266 h -0.002 c 0.153663,-0.30288 0.413485,-0.524167 0.599609,-0.804688 0.354615,0.692451 0.911867,1.282913 1.640625,1.5625 1.57712,0.604725 3.561452,-0.281166 4.167969,-1.857421 l 0.002,-0.002 2.279297,-5.9394536 a 2.4782926,2.4782926 0 0 0 0.0039,-0.00586 C 25.176717,9.1825979 25.149802,8.278819 24.808594,7.5097656 24.466147,6.7370729 23.81003,6.1088898 23.021484,5.8046875 a 2.4782926,2.4782926 0 0 0 -0.0039,0 l -5.939453,-2.28125 a 2.4782926,2.4782926 0 0 0 -0.002,-0.00195 C 16.681678,3.3702213 16.261321,3.3134005 15.84375,3.3359375 Z" /></g><g
         style="fill:#333333;stroke:#1a1a1a;stroke-width:1.5"
         id="g7"
         transform="matrix(1.323556,-0.38881556,0.38881556,1.323556,-0.85836541,464.24431)"><path
           id="path7"
           style="baseline-shift:baseline;display:inline;overflow:visible;opacity:1;vector-effect:none;fill:#333333;stroke:none;stroke-linecap:round;stroke-linejoin:round;enable-background:accumulate;stop-color:#000000;stop-opacity:1"
           d="m 16.888672,4.0117187 c -1.321526,-0.5067201 -2.984438,0.2336491 -3.492188,1.5546875 -0.507644,1.3202413 0.229443,2.9823236 1.548829,3.4921876 a 1.954539,1.954539 0 0 0 0.0039,0.00195 l 0.515625,0.1972656 C 14.57835,9.9303576 13.799669,10.675649 13.09375,11.519531 L 10.916016,9.3398438 c -1.0017277,-1.00501 -2.8303043,-1.00501 -3.8320316,0 L 0.33984375,16.083984 c -1.00414884,1.000669 -1.00398047,2.825716 -0.001953,3.828125 1.00240967,1.002028 2.82745677,1.002196 3.82812497,-0.002 L 9,15.076172 11.394531,17.46875 c 1.202689,1.201862 3.552534,0.82641 4.322266,-0.689453 v -0.002 c 0.355492,-0.700402 0.876515,-1.280472 1.388672,-1.861328 0.09265,1.013695 0.546558,1.999152 1.505859,2.367187 1.321526,0.506721 2.984437,-0.23365 3.492188,-1.554687 v -0.002 l 2.28125,-5.9394536 a 1.954539,1.954539 0 0 0 0.002,-0.00391 c 0.251292,-0.6590327 0.229735,-1.4179464 -0.05664,-2.0625 C 24.043135,7.0735607 23.492505,6.5477637 22.832031,6.2929687 a 1.954539,1.954539 0 0 0 -0.002,0 l -5.939453,-2.28125 a 1.954539,1.954539 0 0 0 -0.002,0 z" /></g><g
         style="fill:none;stroke:#f9f9f9;stroke-width:1.5"
         id="g8"
         transform="matrix(1.323556,-0.38881556,0.38881556,1.323556,-0.85836541,464.24431)"><path
           stroke-linecap="round"
           stroke-linejoin="round"
           d="M 2.25,18 9,11.25 l 4.306,4.306 a 11.95,11.95 0 0 1 5.814,-5.518 l 2.74,-1.22 m 0,0 -5.94,-2.281 m 5.94,2.28 -2.28,5.941"
           id="path8"
           style="stroke:#f9f9f9" /></g></g></g></svg>
